<?xml version="1.0" encoding="utf-8"?>
<!-- Generator: Adobe Illustrator 16.0.0, SVG Export Plug-In . SVG Version: 6.00 Build 0)  -->
<!DOCTYPE svg PUBLIC "-//W3C//DTD SVG 1.1//EN" "http://www.w3.org/Graphics/SVG/1.1/DTD/svg11.dtd">
<svg version="1.1" id="Layer_1" xmlns="http://www.w3.org/2000/svg" xmlns:xlink="http://www.w3.org/1999/xlink" x="0px" y="0px"
	 width="24px" height="24px" viewBox="0 0 24 24" enable-background="new 0 0 24 24" xml:space="preserve">
<path d="M21.585,4.789c0.256-0.296,0.412-0.682,0.412-1.104c0-0.93-0.755-1.685-1.685-1.685c-0.42,0-0.806,0.156-1.102,0.412
	C17.202,0.898,14.704,0,12.001,0c-6.616,0-12,5.382-12,12s5.382,12,12,12c6.617,0,11.998-5.382,11.998-12
	C23.999,9.296,23.101,6.798,21.585,4.789L21.585,4.789z M11.999,23.596C5.604,23.596,0.404,18.393,0.404,12
	S5.607,0.404,11.999,0.404c2.599,0,5.003,0.859,6.938,2.311c-0.195,0.274-0.311,0.61-0.311,0.971c0,0.93,0.755,1.685,1.686,1.685
	c0.361,0,0.697-0.115,0.971-0.31c1.45,1.938,2.311,4.339,2.311,6.939C23.594,18.394,18.393,23.596,11.999,23.596L11.999,23.596z
	 M16.898,11.999c0,2.705-2.194,4.899-4.899,4.899c-2.706,0-4.898-2.194-4.898-4.899c0-2.706,2.192-4.899,4.898-4.899
	C14.704,7.1,16.898,9.293,16.898,11.999z"/>
</svg>
