<?xml version="1.0" encoding="utf-8"?>
<!-- Generator: Adobe Illustrator 16.0.0, SVG Export Plug-In . SVG Version: 6.00 Build 0)  -->
<!DOCTYPE svg PUBLIC "-//W3C//DTD SVG 1.1//EN" "http://www.w3.org/Graphics/SVG/1.1/DTD/svg11.dtd">
<svg version="1.1" id="Layer_1" xmlns="http://www.w3.org/2000/svg" xmlns:xlink="http://www.w3.org/1999/xlink" x="0px" y="0px"
	 width="24px" height="24px" viewBox="0 0 24 24" enable-background="new 0 0 24 24" xml:space="preserve">
<g>
	<path d="M19.463,13.505l0.027,0.015l-0.057-0.021C19.443,13.498,19.454,13.5,19.463,13.505z M19.463,13.505
		c0.009,0.007,0.019,0.01,0.029,0.012l-0.057-0.022L19.463,13.505z"/>
	<path d="M19.428,13.613c-0.02,0.071-0.035,0.146-0.046,0.219c-0.012,0.074-0.027,0.148-0.047,0.221l-0.06-0.017
		c0.02-0.072,0.047-0.143,0.077-0.212C19.381,13.756,19.408,13.686,19.428,13.613L19.428,13.613z M19.428,13.613
		c-0.02,0.071-0.035,0.146-0.046,0.219c-0.012,0.074-0.027,0.148-0.047,0.22l-0.06-0.018c0.02-0.07,0.047-0.141,0.076-0.21
		C19.379,13.756,19.406,13.686,19.428,13.613L19.428,13.613z"/>
	<path d="M17.748,18.026c-0.074-0.019-0.137-0.063-0.193-0.112c-0.025-0.027-0.054-0.054-0.076-0.083l-0.035-0.045l-0.032-0.047
		c-0.083-0.125-0.15-0.261-0.211-0.398c-0.06-0.138-0.112-0.279-0.162-0.421c-0.049-0.143-0.095-0.286-0.138-0.431
		c-0.085-0.288-0.162-0.58-0.236-0.872c-0.073-0.292-0.141-0.585-0.205-0.879c-0.132-0.587-0.251-1.179-0.368-1.768l-0.171-0.888
		c-0.056-0.295-0.112-0.591-0.164-0.887l0.056-0.002l-0.001,0.012v-0.01c0.052,0.297,0.107,0.592,0.163,0.889l0.167,0.889
		c0.112,0.593,0.229,1.183,0.354,1.772c0.061,0.296,0.127,0.59,0.196,0.883s0.145,0.585,0.228,0.874
		c0.083,0.289,0.175,0.575,0.292,0.854c0.06,0.138,0.125,0.274,0.208,0.399l0.03,0.046l0.036,0.045
		c0.021,0.031,0.049,0.057,0.074,0.084c0.055,0.05,0.117,0.095,0.19,0.112h0l0.069-0.005c0.022-0.002,0.045-0.011,0.066-0.016
		c0.022-0.004,0.043-0.015,0.064-0.023c0.021-0.009,0.042-0.019,0.062-0.031c0.019-0.013,0.04-0.022,0.058-0.037l0.054-0.043
		c0.018-0.015,0.033-0.032,0.05-0.049c0.018-0.015,0.034-0.032,0.048-0.05c0.014-0.018,0.059-0.07,0.086-0.108
		c0.013-0.018,0.028-0.036,0.039-0.057l0.035-0.061l0.034-0.06c0.013-0.021,0.022-0.042,0.032-0.062l0.06-0.125l0.004,0.002
		c-0.041,0.082-0.083,0.162-0.13,0.239c-0.024,0.038-0.05,0.077-0.075,0.113c-0.027,0.037-0.056,0.072-0.086,0.107
		c-0.015,0.017-0.031,0.032-0.047,0.049c-0.015,0.016-0.034,0.031-0.05,0.046s-0.071,0.057-0.11,0.08
		c-0.021,0.01-0.041,0.023-0.061,0.03c-0.021,0.009-0.042,0.017-0.064,0.023c-0.021,0.006-0.044,0.01-0.066,0.014
		c-0.022,0.003-0.045,0.003-0.068,0.005H17.748z M17.748,18.026c0.023-0.002,0.046-0.001,0.068-0.006s0.045-0.008,0.066-0.015
		c0.022-0.006,0.042-0.015,0.064-0.023c0.021-0.009,0.04-0.021,0.06-0.03c0.04-0.023,0.077-0.051,0.111-0.079
		c0.017-0.017,0.035-0.03,0.051-0.047c0.015-0.016,0.032-0.032,0.046-0.05c0.031-0.033,0.058-0.07,0.085-0.107
		s0.052-0.073,0.076-0.112c0.048-0.078,0.09-0.159,0.13-0.24l0.005,0.003l-0.061,0.124c-0.01,0.021-0.019,0.042-0.03,0.063
		l-0.036,0.059l-0.034,0.062c-0.011,0.021-0.026,0.038-0.04,0.058c-0.026,0.038-0.055,0.073-0.085,0.109
		c-0.015,0.019-0.031,0.034-0.048,0.051c-0.016,0.017-0.032,0.034-0.05,0.049l-0.054,0.043c-0.018,0.015-0.039,0.025-0.058,0.038
		c-0.019,0.013-0.04,0.022-0.063,0.032c-0.021,0.008-0.042,0.02-0.065,0.024c-0.024,0.005-0.045,0.015-0.068,0.016l-0.071,0.006h0
		c-0.076-0.019-0.14-0.063-0.196-0.113c-0.026-0.027-0.055-0.054-0.077-0.084l-0.035-0.044l-0.032-0.047
		c-0.085-0.127-0.152-0.263-0.213-0.399c-0.121-0.277-0.217-0.564-0.303-0.853c-0.087-0.29-0.165-0.581-0.238-0.874
		c-0.073-0.292-0.141-0.587-0.206-0.881c-0.131-0.589-0.248-1.181-0.363-1.771c-0.056-0.296-0.115-0.592-0.168-0.889
		c-0.053-0.298-0.109-0.594-0.16-0.891l-0.001-0.005l0.001-0.005l0.001-0.01l0.028-0.159l0.027,0.158
		c0.052,0.297,0.106,0.593,0.161,0.889l0.164,0.888c0.11,0.592,0.225,1.182,0.348,1.771c0.062,0.295,0.128,0.588,0.197,0.88
		c0.069,0.293,0.144,0.584,0.229,0.874c0.042,0.146,0.087,0.288,0.135,0.431c0.05,0.143,0.101,0.283,0.161,0.421
		c0.06,0.139,0.126,0.274,0.21,0.399l0.031,0.047l0.035,0.044c0.022,0.031,0.05,0.057,0.076,0.085
		C17.612,17.964,17.675,18.009,17.748,18.026L17.748,18.026z"/>
	<path d="M10.391,18.026l-0.042,0.015c-0.015,0.004-0.03,0.005-0.045,0.007l0,0c-0.076-0.018-0.14-0.063-0.195-0.114
		c-0.027-0.027-0.054-0.053-0.077-0.084l-0.035-0.044l-0.032-0.049c-0.085-0.126-0.151-0.263-0.211-0.402
		c-0.061-0.14-0.113-0.283-0.164-0.426c-0.048-0.144-0.095-0.29-0.138-0.435c-0.043-0.146-0.084-0.293-0.123-0.439
		c-0.039-0.147-0.076-0.294-0.113-0.442c-0.074-0.295-0.141-0.592-0.207-0.888c-0.131-0.595-0.252-1.189-0.369-1.787l-0.172-0.896
		l-0.084-0.448c-0.029-0.149-0.055-0.298-0.082-0.449l0.053,0.001L8.347,11.18L8.34,11.214v-0.009
		c0.027,0.149,0.052,0.298,0.081,0.445l0.086,0.445l0.173,0.89c0.118,0.592,0.234,1.186,0.362,1.776
		c0.063,0.295,0.131,0.59,0.202,0.883s0.145,0.585,0.229,0.876c0.084,0.29,0.178,0.576,0.295,0.854
		c0.061,0.137,0.126,0.272,0.209,0.397c0.041,0.063,0.089,0.12,0.142,0.172c0.055,0.05,0.116,0.093,0.187,0.112l-0.003-0.001
		c0.045-0.001,0.088-0.019,0.126-0.044c0.039-0.027,0.074-0.06,0.103-0.096c0.017-0.019,0.03-0.037,0.045-0.057
		c0.014-0.02,0.027-0.038,0.04-0.06c0.012-0.02,0.05-0.082,0.073-0.123c0.091-0.17,0.165-0.351,0.23-0.53
		c0.017-0.045,0.034-0.091,0.049-0.136c0.017-0.046,0.031-0.092,0.044-0.139l0.08-0.278l0.162-0.558l0.008,0.002
		c-0.095,0.356-0.196,0.709-0.321,1.057c-0.03,0.086-0.064,0.173-0.1,0.258c-0.035,0.086-0.073,0.17-0.114,0.252
		c-0.019,0.041-0.043,0.081-0.066,0.121c-0.024,0.039-0.046,0.079-0.075,0.116c-0.015,0.018-0.027,0.037-0.042,0.055L10.5,17.946
		c-0.016,0.016-0.035,0.029-0.052,0.045c-0.019,0.014-0.039,0.024-0.059,0.036L10.391,18.026z M10.391,18.026
		c0.02-0.013,0.041-0.021,0.06-0.036c0.017-0.015,0.035-0.03,0.052-0.045l0.045-0.052c0.016-0.018,0.029-0.037,0.042-0.055
		c0.028-0.037,0.051-0.077,0.075-0.116c0.022-0.04,0.045-0.079,0.065-0.121c0.041-0.083,0.078-0.167,0.113-0.252
		c0.035-0.084,0.067-0.17,0.099-0.258c0.123-0.347,0.222-0.701,0.317-1.057l0.008,0.002l-0.158,0.559l-0.078,0.279
		c-0.013,0.046-0.026,0.094-0.043,0.14c-0.015,0.046-0.031,0.091-0.047,0.136c-0.066,0.184-0.137,0.363-0.227,0.535
		c-0.023,0.043-0.046,0.086-0.074,0.127c-0.013,0.021-0.026,0.041-0.041,0.061c-0.015,0.02-0.028,0.04-0.045,0.06
		c-0.017,0.018-0.067,0.072-0.107,0.101c-0.042,0.028-0.09,0.05-0.143,0.052h-0.001L10.3,18.083
		c-0.077-0.021-0.141-0.065-0.201-0.115c-0.054-0.055-0.104-0.113-0.146-0.178c-0.086-0.126-0.155-0.262-0.217-0.4
		c-0.121-0.279-0.219-0.566-0.305-0.855s-0.165-0.582-0.238-0.876c-0.072-0.293-0.14-0.589-0.205-0.884
		c-0.128-0.591-0.251-1.183-0.366-1.776l-0.17-0.891l-0.084-0.445c-0.029-0.147-0.054-0.298-0.079-0.446l-0.002-0.005l0.002-0.005
		l0.006-0.035l0.006-0.035l0.028-0.141l0.025,0.142l0.159,0.897l0.165,0.897c0.111,0.598,0.227,1.194,0.352,1.79
		c0.126,0.594,0.259,1.188,0.429,1.771c0.042,0.146,0.087,0.291,0.136,0.436c0.051,0.143,0.101,0.286,0.162,0.426
		s0.126,0.277,0.211,0.403L10,17.806l0.036,0.046c0.021,0.03,0.05,0.057,0.076,0.084c0.056,0.051,0.119,0.096,0.194,0.115l0,0
		c0.015-0.003,0.031-0.005,0.045-0.006l0.042-0.017L10.391,18.026z"/>
	<path d="M2.816,18.026c-0.023-0.025-0.057-0.035-0.083-0.056c-0.013-0.009-0.027-0.019-0.04-0.029
		c-0.012-0.011-0.025-0.021-0.037-0.033c-0.048-0.047-0.087-0.103-0.122-0.159c-0.02-0.027-0.034-0.059-0.05-0.086
		c-0.016-0.029-0.031-0.06-0.044-0.09l-0.042-0.092l-0.036-0.093c-0.025-0.063-0.046-0.127-0.067-0.189
		c-0.021-0.063-0.04-0.128-0.059-0.191c-0.039-0.128-0.069-0.26-0.101-0.389c-0.03-0.131-0.057-0.261-0.085-0.393l-0.074-0.394
		c-0.024-0.132-0.044-0.265-0.072-0.395c-0.027-0.132-0.051-0.262-0.083-0.392l-0.047-0.194l-0.051-0.193
		c-0.033-0.13-0.077-0.256-0.114-0.382c-0.046-0.126-0.086-0.253-0.138-0.376c-0.048-0.124-0.106-0.244-0.163-0.363l-0.096-0.175
		c-0.032-0.059-0.07-0.113-0.105-0.169c-0.034-0.058-0.078-0.107-0.116-0.161c-0.039-0.055-0.085-0.101-0.129-0.149
		c-0.042-0.051-0.094-0.093-0.144-0.137c-0.046-0.048-0.104-0.079-0.156-0.12c-0.027-0.02-0.056-0.035-0.084-0.05L0.39,12.529
		c-0.06-0.028-0.122-0.047-0.183-0.072l0.007,0.002H0.147l0.006-0.051c0.065,0.021,0.132,0.039,0.196,0.066l0.092,0.044
		c0.032,0.015,0.063,0.028,0.09,0.05c0.118,0.07,0.227,0.156,0.322,0.254c0.098,0.097,0.182,0.204,0.261,0.315
		c0.037,0.058,0.078,0.112,0.112,0.172l0.099,0.178c0.061,0.123,0.122,0.244,0.17,0.371c0.055,0.125,0.097,0.253,0.143,0.382
		c0.022,0.064,0.04,0.129,0.06,0.193c0.021,0.064,0.041,0.13,0.057,0.195c0.035,0.131,0.07,0.263,0.099,0.395
		c0.031,0.131,0.059,0.265,0.084,0.397c0.028,0.133,0.048,0.267,0.072,0.399l0.072,0.398c0.024,0.132,0.053,0.264,0.081,0.396
		c0.032,0.13,0.061,0.263,0.097,0.392c0.018,0.064,0.036,0.13,0.058,0.193c0.02,0.064,0.038,0.129,0.064,0.191l0.035,0.094
		l0.04,0.092c0.014,0.031,0.027,0.062,0.043,0.09c0.017,0.031,0.031,0.062,0.049,0.088c0.036,0.057,0.072,0.111,0.118,0.156
		c0.011,0.013,0.023,0.024,0.035,0.034c0.013,0.01,0.026,0.021,0.039,0.028c0.027,0.021,0.056,0.027,0.09,0.062l-0.018-0.008
		c0.044-0.001,0.088-0.02,0.127-0.045s0.072-0.061,0.104-0.096c0.031-0.037,0.06-0.076,0.086-0.118
		c0.026-0.04,0.051-0.083,0.074-0.126c0.092-0.173,0.167-0.357,0.234-0.542c0.017-0.048,0.034-0.093,0.047-0.14l0.135-0.425
		l0.157-0.571l0.03,0.008c-0.049,0.189-0.104,0.379-0.161,0.566c-0.057,0.188-0.118,0.374-0.187,0.559
		c-0.067,0.185-0.143,0.366-0.236,0.539c-0.046,0.086-0.099,0.17-0.164,0.245c-0.032,0.037-0.068,0.071-0.108,0.099
		C2.912,18.008,2.866,18.026,2.816,18.026z M2.816,18.026c0.05-0.001,0.096-0.021,0.137-0.048c0.04-0.027,0.075-0.063,0.106-0.1
		c0.063-0.075,0.113-0.159,0.16-0.247c0.091-0.173,0.162-0.355,0.229-0.54c0.13-0.369,0.233-0.747,0.332-1.127l0.031,0.008
		l-0.156,0.574l-0.131,0.425c-0.014,0.048-0.031,0.096-0.047,0.143c-0.067,0.186-0.142,0.37-0.234,0.547
		c-0.024,0.045-0.049,0.087-0.075,0.13c-0.027,0.042-0.056,0.083-0.088,0.123c-0.034,0.037-0.069,0.076-0.113,0.104
		c-0.043,0.028-0.094,0.053-0.149,0.053h-0.01L2.8,18.062c-0.014-0.016-0.051-0.031-0.079-0.053
		c-0.015-0.008-0.029-0.019-0.042-0.03c-0.014-0.011-0.027-0.022-0.039-0.035c-0.05-0.05-0.089-0.107-0.125-0.165
		c-0.02-0.029-0.033-0.061-0.05-0.09c-0.018-0.029-0.032-0.062-0.045-0.092l-0.041-0.094l-0.036-0.096
		c-0.026-0.063-0.045-0.128-0.066-0.192c-0.022-0.064-0.041-0.13-0.059-0.194c-0.039-0.13-0.067-0.262-0.1-0.394
		c-0.029-0.133-0.058-0.266-0.083-0.397L1.961,15.83c-0.025-0.132-0.045-0.267-0.074-0.397c-0.027-0.132-0.054-0.265-0.086-0.396
		c-0.029-0.131-0.064-0.262-0.099-0.392c-0.017-0.065-0.037-0.13-0.058-0.193c-0.02-0.064-0.038-0.13-0.06-0.193
		c-0.046-0.126-0.087-0.255-0.14-0.377c-0.048-0.126-0.109-0.246-0.167-0.367L1.18,13.339c-0.034-0.059-0.072-0.112-0.108-0.169
		c-0.077-0.109-0.159-0.215-0.253-0.309c-0.092-0.096-0.197-0.18-0.31-0.248c-0.027-0.02-0.057-0.034-0.087-0.049l-0.089-0.043
		c-0.061-0.025-0.126-0.043-0.188-0.064L0,12.407l0.22,0.001l0.002,0.001c0.063,0.025,0.128,0.047,0.188,0.075l0.09,0.049
		c0.031,0.016,0.061,0.031,0.087,0.054c0.054,0.04,0.113,0.076,0.16,0.123c0.051,0.046,0.103,0.089,0.146,0.141
		c0.045,0.051,0.093,0.098,0.13,0.154c0.04,0.055,0.084,0.105,0.118,0.164c0.035,0.058,0.074,0.113,0.106,0.172l0.096,0.177
		c0.056,0.122,0.115,0.242,0.162,0.368c0.053,0.123,0.092,0.252,0.138,0.378c0.037,0.129,0.08,0.256,0.112,0.386l0.051,0.194
		l0.045,0.195c0.031,0.13,0.056,0.262,0.082,0.393c0.027,0.132,0.046,0.263,0.07,0.395l0.069,0.394
		c0.025,0.131,0.051,0.263,0.08,0.394c0.031,0.13,0.059,0.26,0.096,0.389c0.016,0.064,0.036,0.129,0.056,0.192
		s0.039,0.127,0.064,0.189l0.035,0.094l0.04,0.092c0.013,0.03,0.027,0.062,0.043,0.09c0.017,0.03,0.029,0.061,0.048,0.089
		c0.036,0.056,0.073,0.112,0.121,0.158c0.011,0.013,0.024,0.024,0.037,0.034c0.013,0.01,0.026,0.021,0.04,0.03
		c0.014,0.01,0.06,0.032,0.082,0.057L2.816,18.026z"/>
	<path d="M21.256,18.07c0,0,0.755-0.434,0.907-2.097c0.216-2.332,0.604-3.153,1.836-3.563h-3.521
		c-0.377,0.063-0.632,0.271-0.824,0.676c0,0.002,0,0.004,0,0.004c0,0.003-0.001,0.005-0.003,0.006c0,0.005,0.001,0.01,0.003,0.017
		c-0.255,0.467-0.425,1.211-0.574,2.211c-0.166,0.961-0.401,1.787-0.714,2.254c-0.183,0.297-0.393,0.469-0.632,0.469L21.256,18.07z"
		/>
	<path d="M19.642,13.121c-0.002-0.006-0.002-0.011-0.003-0.016c-0.064,0.115-0.122,0.249-0.176,0.399c0,0.001,0,0.002,0,0.002
		c-0.012,0.033-0.022,0.071-0.035,0.106c-0.042,0.134-0.084,0.274-0.125,0.43c-0.09,0.369-0.17,0.8-0.242,1.293
		c-0.136,0.793-0.32,1.492-0.554,1.98c-0.054,0.119-0.109,0.227-0.168,0.32c0.316-0.471,0.554-1.306,0.722-2.279
		C19.211,14.346,19.384,13.594,19.642,13.121L19.642,13.121z"/>
	<path d="M17.461,5.936c-0.061,0.002-0.114,0.029-0.161,0.063c-0.045,0.038-0.085,0.081-0.12,0.128
		c-0.071,0.094-0.127,0.197-0.177,0.304c-0.051,0.104-0.096,0.213-0.14,0.322c-0.042,0.109-0.081,0.22-0.117,0.331
		c-0.037,0.11-0.071,0.224-0.105,0.336c-0.034,0.113-0.065,0.226-0.096,0.338c-0.062,0.228-0.12,0.455-0.172,0.683
		c-0.215,0.914-0.398,1.835-0.566,2.757l-0.02,0.106l-0.019-0.106l-0.001-0.01l0.038-0.001l-0.001,0.008v-0.007
		c0.052,0.297,0.107,0.591,0.164,0.888l0.168,0.887c0.114,0.592,0.233,1.182,0.361,1.77c0.064,0.293,0.13,0.587,0.202,0.879
		c0.07,0.291,0.147,0.582,0.232,0.87c0.043,0.144,0.088,0.287,0.137,0.43c0.049,0.142,0.102,0.28,0.161,0.419
		c0.06,0.136,0.126,0.271,0.208,0.393l0.031,0.047l0.035,0.043c0.021,0.029,0.049,0.054,0.073,0.08
		c0.053,0.047,0.112,0.089,0.18,0.104l-0.007-0.001c0.099,0,0.195-0.033,0.277-0.09c0.084-0.055,0.156-0.13,0.219-0.209
		c0.063-0.08,0.118-0.168,0.167-0.26c0.025-0.045,0.05-0.093,0.071-0.138l0.061-0.145c0.021-0.049,0.037-0.099,0.055-0.146
		c0.017-0.05,0.037-0.098,0.052-0.147c0.032-0.1,0.064-0.199,0.091-0.299c0.03-0.101,0.056-0.202,0.081-0.303
		c0.025-0.102,0.047-0.204,0.072-0.305l0.063-0.309l0.056-0.308l0.115-0.618c0.018-0.103,0.045-0.205,0.067-0.308l0.069-0.309
		c0.011-0.051,0.025-0.103,0.04-0.152l0.044-0.15c0.03-0.102,0.057-0.201,0.092-0.306v0.004l0.075-0.201
		c0.013-0.032,0.028-0.065,0.042-0.099l0.043-0.098l0.029-0.066l0.014,0.072l0.003,0.016l-0.043-0.005l0.014-0.024l-0.002,0.014
		l-0.077-0.467c-0.024-0.156-0.054-0.312-0.083-0.468l-0.172-0.931c-0.117-0.62-0.237-1.241-0.367-1.859
		c-0.064-0.308-0.133-0.616-0.206-0.924c-0.071-0.307-0.147-0.613-0.234-0.917c-0.042-0.152-0.087-0.304-0.138-0.454
		c-0.05-0.148-0.102-0.297-0.164-0.442c-0.06-0.146-0.126-0.29-0.211-0.422c-0.022-0.032-0.043-0.066-0.069-0.097
		c-0.012-0.015-0.024-0.03-0.037-0.046l-0.041-0.042c-0.057-0.055-0.121-0.103-0.198-0.12l0,0l-0.143-0.002
		c-0.024,0.002-0.047-0.002-0.072,0.003l-0.019,0.002c-0.004,0.002-0.012,0.002-0.017,0.003l-0.034,0.014V5.938l0.126,0.001
		L17.461,5.936z M17.461,5.936l-0.129,0.001l0.036-0.015c0.006-0.003,0.011-0.003,0.018-0.003l0.018-0.004
		c0.024-0.005,0.048-0.002,0.072-0.003l0.144-0.001c0.079,0.019,0.144,0.066,0.202,0.121l0.042,0.043
		c0.014,0.015,0.025,0.03,0.039,0.046c0.026,0.03,0.046,0.063,0.069,0.096c0.086,0.133,0.155,0.276,0.218,0.421
		c0.062,0.145,0.116,0.294,0.167,0.444c0.051,0.149,0.098,0.3,0.142,0.451c0.177,0.606,0.32,1.223,0.452,1.84
		c0.132,0.618,0.255,1.237,0.373,1.858l0.176,0.932c0.029,0.154,0.059,0.31,0.083,0.466l0.079,0.467l0.002,0.008l-0.003,0.007
		l-0.012,0.025l-0.03,0.06l-0.013-0.064l-0.002-0.016l0.042,0.006l-0.042,0.097c-0.013,0.032-0.029,0.064-0.042,0.097l-0.073,0.198
		l-0.001,0.004c-0.032,0.094-0.061,0.196-0.089,0.297l-0.043,0.15c-0.015,0.052-0.029,0.1-0.04,0.151l-0.068,0.306
		c-0.022,0.104-0.047,0.204-0.066,0.307l-0.113,0.619l-0.056,0.31l-0.063,0.309c-0.024,0.103-0.044,0.205-0.071,0.308
		c-0.025,0.102-0.049,0.203-0.08,0.304c-0.027,0.103-0.06,0.202-0.092,0.304c-0.015,0.05-0.035,0.1-0.052,0.149
		c-0.018,0.049-0.034,0.1-0.055,0.147l-0.06,0.146c-0.024,0.05-0.047,0.097-0.072,0.143c-0.051,0.094-0.107,0.185-0.172,0.269
		c-0.066,0.083-0.141,0.163-0.233,0.223c-0.091,0.062-0.2,0.1-0.311,0.101h-0.003l-0.003-0.001c-0.081-0.02-0.148-0.068-0.206-0.12
		c-0.027-0.029-0.056-0.056-0.079-0.087l-0.035-0.045l-0.032-0.048c-0.085-0.129-0.151-0.265-0.212-0.403
		c-0.061-0.138-0.112-0.281-0.162-0.424c-0.048-0.143-0.094-0.286-0.136-0.433c-0.085-0.289-0.161-0.581-0.231-0.874
		c-0.071-0.293-0.137-0.586-0.201-0.881c-0.127-0.589-0.242-1.18-0.354-1.771l-0.166-0.888c-0.054-0.296-0.11-0.593-0.161-0.889
		l-0.001-0.005l0.001-0.003l0.001-0.003l0.022-0.094l0.016,0.093l0.001,0.011H15.77c0.086-0.463,0.175-0.923,0.271-1.384
		c0.095-0.46,0.196-0.919,0.309-1.374c0.056-0.228,0.116-0.455,0.18-0.682c0.032-0.113,0.064-0.226,0.1-0.338
		c0.035-0.111,0.069-0.224,0.107-0.334c0.039-0.112,0.079-0.223,0.121-0.332s0.089-0.217,0.142-0.323
		c0.052-0.104,0.11-0.208,0.18-0.301c0.036-0.047,0.077-0.09,0.122-0.127c0.048-0.034,0.102-0.063,0.162-0.063H17.461z"/>
	<path d="M19.639,13.105c0-0.002,0.001-0.005,0.003-0.006c0-0.002-0.002-0.004-0.002-0.005c0,0.003-0.001,0.005-0.001,0.006
		C19.639,13.103,19.639,13.104,19.639,13.105L19.639,13.105z"/>
	<path d="M19.462,13.508c-0.011,0.034-0.024,0.07-0.035,0.106C19.44,13.579,19.451,13.541,19.462,13.508z"/>
	<path d="M19.625,13.126c-0.001-0.005-0.001-0.011-0.003-0.016c-0.056,0.118-0.11,0.25-0.159,0.395
		c0.055-0.15,0.112-0.284,0.176-0.399c0-0.002-0.001-0.004-0.001-0.005C19.633,13.11,19.629,13.117,19.625,13.126z"/>
	<path d="M18.507,17.317c0.234-0.488,0.418-1.188,0.554-1.979c0.072-0.494,0.152-0.926,0.242-1.294
		c-0.096,0.379-0.184,0.822-0.271,1.339C18.901,16.146,18.727,16.826,18.507,17.317L18.507,17.317z"/>
	<path d="M13.788,18.089c0.562-0.13,1.035-1.728,1.834-6.088c0.042-0.293,0.104-0.564,0.146-0.837
		c-0.005-0.025-0.009-0.052-0.014-0.08c0-0.004,0.001-0.007,0.002-0.01c-0.001-0.004-0.002-0.007-0.002-0.012
		c0.506-2.608,1.03-4.892,1.557-5.128h-3.111c-0.029-0.013-0.06-0.021-0.088-0.021h-0.194c-0.539,0.129-1.014,1.705-1.813,6.088
		c-0.016,0.1-0.033,0.187-0.049,0.28c0.001,0.008,0.002,0.014,0.004,0.021c0,0.004,0,0.007-0.002,0.01
		c0.001,0.004,0.002,0.007,0.002,0.012c-0.335,1.806-0.687,3.495-1.04,4.549c-0.213,0.661-0.428,1.098-0.64,1.193L13.788,18.089z"/>
	<path d="M15.77,11.109c-0.001,0.003-0.001,0.007-0.002,0.01c0.006,0.029,0.01,0.055,0.014,0.082
		c0.001-0.004,0.001-0.008,0.001-0.012C15.778,11.164,15.775,11.138,15.77,11.109L15.77,11.109z"/>
	<path d="M12.044,12.357c-0.253,1.367-0.517,2.667-0.783,3.678c-0.087,0.337-0.173,0.644-0.261,0.915
		c0.355-1.063,0.708-2.763,1.047-4.582C12.046,12.364,12.046,12.361,12.044,12.357z"/>
	<path d="M15.769,11.099c0,0.005,0.001,0.008,0.003,0.012c0.508-2.644,1.035-4.938,1.564-5.175l0,0
		C16.807,6.174,16.278,8.472,15.769,11.099z"/>
	<path d="M15.788,11.194c0.521-2.825,1.108-5.26,1.674-5.26h-0.126c-0.529,0.237-1.057,2.531-1.565,5.175
		c0.005,0.028,0.01,0.055,0.015,0.08c0-0.001,0-0.003,0-0.006C15.786,11.188,15.787,11.191,15.788,11.194L15.788,11.194z"/>
	<path d="M12.041,12.337c-0.215-1.11-0.429-2.22-0.677-3.323c-0.124-0.552-0.254-1.103-0.417-1.642
		c-0.083-0.27-0.173-0.537-0.288-0.794c-0.057-0.129-0.123-0.254-0.202-0.368c-0.04-0.058-0.084-0.11-0.134-0.158
		c-0.051-0.043-0.109-0.081-0.174-0.098l0.005,0.001c-0.059,0-0.123-0.001-0.177,0.002C9.963,5.96,9.945,5.96,9.934,5.965
		L9.898,5.979C9.886,5.986,9.874,5.994,9.862,6.002C9.851,6.009,9.839,6.018,9.828,6.027C9.742,6.104,9.677,6.206,9.62,6.307
		C9.563,6.409,9.514,6.52,9.468,6.629C9.422,6.738,9.382,6.851,9.342,6.963C9.187,7.414,9.064,7.876,8.95,8.34
		C8.836,8.804,8.735,9.271,8.637,9.739c-0.098,0.469-0.19,0.937-0.279,1.406v-0.011l0.081,0.449l0.083,0.448l0.167,0.896
		c0.112,0.598,0.229,1.193,0.357,1.788c0.063,0.297,0.129,0.594,0.201,0.889c0.036,0.147,0.072,0.295,0.111,0.441
		c0.039,0.147,0.078,0.294,0.12,0.438c0.042,0.146,0.088,0.29,0.137,0.435c0.05,0.143,0.101,0.285,0.16,0.424
		c0.061,0.14,0.127,0.275,0.209,0.4l0.031,0.047l0.034,0.043c0.022,0.031,0.048,0.057,0.076,0.084
		c0.054,0.05,0.114,0.093,0.185,0.109l-0.005-0.001c0.014-0.003,0.029-0.004,0.042-0.007c0.013-0.006,0.03-0.011,0.039-0.015
		c0.028-0.016,0.056-0.031,0.077-0.052c0.045-0.038,0.084-0.088,0.121-0.138c0.071-0.104,0.128-0.216,0.181-0.329
		s0.099-0.231,0.143-0.351c0.043-0.118,0.083-0.238,0.124-0.358c0.077-0.241,0.146-0.485,0.211-0.729l0.172-0.739l0.173-0.74
		c0.029-0.123,0.059-0.246,0.082-0.371l0.076-0.371l0.149-0.746l0.075-0.372c0.024-0.124,0.052-0.247,0.073-0.373V12.337z
		 M12.041,12.337c-0.021,0.125-0.047,0.249-0.071,0.374l-0.071,0.372l-0.143,0.748l-0.071,0.372
		c-0.022,0.125-0.051,0.249-0.079,0.371l-0.167,0.742l-0.083,0.371l-0.086,0.37c-0.064,0.246-0.133,0.49-0.209,0.731
		c-0.039,0.121-0.079,0.241-0.122,0.36s-0.09,0.237-0.143,0.354c-0.053,0.115-0.111,0.23-0.185,0.336
		c-0.037,0.053-0.076,0.103-0.128,0.147c-0.026,0.022-0.053,0.038-0.08,0.055c-0.019,0.009-0.034,0.013-0.05,0.019
		c-0.016,0.004-0.035,0.006-0.051,0.008H10.3h-0.003c-0.081-0.02-0.147-0.066-0.204-0.119c-0.027-0.028-0.056-0.056-0.079-0.087
		l-0.036-0.045l-0.032-0.048c-0.086-0.128-0.152-0.266-0.213-0.406c-0.062-0.141-0.113-0.284-0.164-0.428
		c-0.049-0.144-0.095-0.289-0.138-0.436c-0.042-0.146-0.084-0.292-0.123-0.439c-0.039-0.146-0.075-0.294-0.112-0.442
		c-0.072-0.296-0.14-0.593-0.204-0.89c-0.13-0.595-0.249-1.191-0.364-1.787l-0.17-0.897l-0.083-0.448l-0.079-0.449l-0.001-0.005
		l0.001-0.006c0.091-0.469,0.185-0.938,0.284-1.407c0.1-0.468,0.203-0.934,0.318-1.398c0.116-0.465,0.239-0.928,0.398-1.381
		c0.04-0.113,0.082-0.226,0.128-0.337C9.47,6.503,9.52,6.392,9.58,6.287c0.059-0.104,0.125-0.209,0.219-0.292
		c0.011-0.009,0.023-0.02,0.037-0.027c0.014-0.009,0.026-0.019,0.04-0.026l0.047-0.018c0.016-0.005,0.03-0.005,0.046-0.007
		c0.065-0.005,0.121-0.002,0.182-0.002h0.002h0.002c0.074,0.02,0.137,0.062,0.193,0.107c0.053,0.052,0.1,0.106,0.14,0.166
		c0.082,0.118,0.147,0.245,0.205,0.375c0.115,0.26,0.205,0.529,0.286,0.801c0.163,0.542,0.292,1.093,0.414,1.645
		c0.238,1.105,0.441,2.218,0.645,3.331L12.041,12.337z"/>
	<path d="M12.044,12.357c0.002-0.003,0.002-0.008,0.003-0.011c-0.001-0.007-0.003-0.015-0.005-0.021
		c0,0.004-0.001,0.008-0.001,0.012C12.042,12.344,12.044,12.351,12.044,12.357L12.044,12.357z"/>
	<path d="M12.027,12.412c-0.25,1.339-0.506,2.614-0.766,3.623c0.266-1.011,0.529-2.311,0.783-3.678c0-0.007-0.001-0.014-0.003-0.021
		C12.037,12.362,12.032,12.387,12.027,12.412L12.027,12.412z"/>
	<path d="M6.346,18.07c0.562-0.13,1.013-1.685,1.813-6.046c0.042-0.294,0.104-0.567,0.146-0.841
		c-0.004-0.022-0.008-0.044-0.012-0.067c0.201-1.048,0.405-2.043,0.613-2.873c0.31-1.271,0.627-2.165,0.948-2.308H6.453
		c-0.54,0.129-1.015,1.705-1.835,6.089c-0.056,0.261-0.098,0.523-0.15,0.786c0.005,0.007,0.011,0.012,0.016,0.019
		c-0.002,0.005-0.003,0.012-0.003,0.019c0,0.001,0.001,0.002,0.003,0.004c-0.321,1.652-0.648,3.168-0.98,4.117
		c-0.231,0.686-0.466,1.102-0.699,1.102h2.414H6.346z"/>
	<path d="M8.328,11.14c-0.001-0.006-0.002-0.013-0.004-0.021c0.193-1.045,0.392-2.035,0.594-2.866
		c-0.208,0.836-0.413,1.834-0.616,2.888c0.004,0.025,0.009,0.046,0.012,0.069c0.001-0.009,0.003-0.017,0.005-0.025
		C8.321,11.17,8.324,11.154,8.328,11.14L8.328,11.14z"/>
	<path d="M4.47,12.881c-0.222,1.142-0.447,2.218-0.675,3.087c-0.101,0.396-0.204,0.752-0.307,1.056
		c0.332-0.955,0.663-2.477,0.984-4.139C4.47,12.884,4.47,12.883,4.47,12.881L4.47,12.881z"/>
	<path d="M8.918,8.253C9.262,6.871,9.611,5.935,9.96,5.935H9.871C9.551,6.078,9.229,6.977,8.918,8.253z"/>
	<path d="M9.99,5.935H9.96c-0.349,0-0.698,0.937-1.042,2.318c-0.203,0.832-0.401,1.822-0.594,2.868
		c0.001,0.006,0.002,0.013,0.004,0.02C8.869,8.339,9.429,5.936,9.99,5.935L9.99,5.935z"/>
	<path d="M2,15.874l0.053,0.29c0.017,0.098,0.039,0.192,0.059,0.289c0.02,0.098,0.042,0.192,0.066,0.288
		c0.022,0.097,0.049,0.19,0.076,0.285c0.024,0.096,0.058,0.187,0.087,0.281l0.052,0.138c0.017,0.046,0.04,0.091,0.059,0.135
		c0.019,0.044,0.045,0.087,0.066,0.131c0.011,0.022,0.026,0.041,0.039,0.063c0.013,0.021,0.026,0.041,0.042,0.06
		c0.016,0.019,0.063,0.075,0.101,0.105c0.018,0.017,0.039,0.029,0.06,0.042c0.021,0.014,0.043,0.022,0.063,0.043l-0.005-0.002
		c0.055-0.002,0.107-0.026,0.151-0.06c0.043-0.034,0.082-0.075,0.116-0.121c0.067-0.089,0.123-0.188,0.171-0.289
		C3.352,17.35,3.43,17.138,3.5,16.925c0.07-0.214,0.134-0.431,0.193-0.647c0.03-0.108,0.059-0.218,0.086-0.327l0.075-0.329
		l0.15-0.659l0.076-0.329c0.025-0.11,0.045-0.221,0.069-0.332l0.267-1.325l0.005,0.023l-0.01-0.013l-0.009-0.013l0.002-0.013
		l0.02-0.102l0.006,0.024l-0.089-0.101c-0.032-0.03-0.063-0.063-0.098-0.092c-0.035-0.025-0.067-0.058-0.106-0.078l-0.056-0.035
		l-0.06-0.028c-0.039-0.021-0.083-0.031-0.125-0.046c-0.042-0.013-0.086-0.021-0.13-0.029c-0.043-0.004-0.089-0.011-0.131-0.013
		l-1.231-0.001l-2.189-0.013l0.004-0.03c0.079,0.033,0.162,0.057,0.235,0.102c0.037,0.022,0.076,0.039,0.11,0.064l0.104,0.074
		c0.036,0.023,0.065,0.056,0.097,0.083c0.031,0.03,0.065,0.057,0.092,0.088c0.056,0.064,0.116,0.125,0.164,0.194l0.076,0.103
		c0.024,0.035,0.045,0.071,0.069,0.107c0.022,0.036,0.046,0.07,0.066,0.108l0.061,0.112c0.042,0.073,0.075,0.15,0.11,0.228
		c0.037,0.077,0.066,0.155,0.098,0.234c0.034,0.078,0.06,0.157,0.088,0.238l0.042,0.119l0.037,0.122
		c0.024,0.082,0.05,0.16,0.07,0.243l0.064,0.245l0.057,0.248c0.02,0.082,0.034,0.166,0.051,0.248
		c0.018,0.083,0.034,0.166,0.047,0.249l0.042,0.249L2,15.874z M2,15.874l-0.045-0.249c-0.013-0.084-0.03-0.166-0.047-0.249
		c-0.018-0.083-0.032-0.166-0.053-0.249l-0.058-0.246l-0.065-0.244c-0.02-0.082-0.047-0.162-0.071-0.243l-0.037-0.121l-0.042-0.119
		c-0.028-0.08-0.055-0.159-0.089-0.237c-0.031-0.079-0.062-0.157-0.099-0.232c-0.037-0.076-0.072-0.154-0.113-0.227l-0.061-0.11
		c-0.02-0.038-0.045-0.072-0.066-0.108c-0.022-0.035-0.046-0.071-0.07-0.105l-0.076-0.101c-0.048-0.068-0.109-0.127-0.166-0.189
		c-0.027-0.032-0.061-0.058-0.091-0.086c-0.032-0.026-0.061-0.059-0.096-0.08l-0.103-0.073c-0.034-0.024-0.074-0.04-0.109-0.062
		c-0.072-0.043-0.154-0.065-0.231-0.097l-0.074-0.029l3.499-0.015c0.049,0.001,0.094,0.008,0.141,0.012
		c0.046,0.009,0.091,0.017,0.137,0.029c0.044,0.015,0.09,0.026,0.132,0.049l0.064,0.029l0.06,0.038
		c0.042,0.022,0.077,0.055,0.114,0.082c0.036,0.03,0.068,0.063,0.101,0.096l0.101,0.115l-0.001,0.015l-0.02,0.103l-0.006-0.023
		L4.47,12.96l0.007,0.011l-0.002,0.013l-0.272,1.325c-0.024,0.111-0.044,0.223-0.071,0.332L4.054,14.97l-0.236,0.987
		c-0.028,0.109-0.059,0.218-0.089,0.326c-0.063,0.218-0.128,0.434-0.202,0.646c-0.072,0.214-0.154,0.425-0.254,0.629
		c-0.05,0.101-0.106,0.199-0.176,0.289c-0.034,0.045-0.074,0.088-0.119,0.121c-0.045,0.036-0.101,0.06-0.16,0.061H2.816
		l-0.002-0.002C2.798,18.011,2.776,18,2.755,17.986c-0.021-0.013-0.042-0.026-0.061-0.043c-0.039-0.032-0.072-0.069-0.101-0.107
		c-0.016-0.02-0.029-0.04-0.042-0.061c-0.012-0.022-0.027-0.042-0.039-0.063c-0.022-0.045-0.048-0.086-0.066-0.133
		s-0.042-0.09-0.057-0.136l-0.052-0.138c-0.029-0.094-0.063-0.187-0.087-0.281c-0.025-0.095-0.052-0.19-0.074-0.286
		c-0.022-0.095-0.046-0.19-0.065-0.287c-0.019-0.097-0.041-0.192-0.057-0.289l-0.053-0.29L2,15.874z"/>
	<path d="M4.47,12.881c0-0.007,0.002-0.011,0.003-0.019c-0.005-0.006-0.009-0.011-0.014-0.019c-0.001,0.007-0.002,0.013-0.003,0.019
		C4.46,12.87,4.465,12.874,4.47,12.881z"/>
	<path d="M4.435,12.965c0.003,0.006,0.006,0.011,0.01,0.016c-0.213,1.1-0.43,2.137-0.65,2.988c0.228-0.87,0.453-1.945,0.675-3.087
		c-0.005-0.008-0.01-0.012-0.015-0.019C4.448,12.897,4.443,12.932,4.435,12.965L4.435,12.965z"/>
</g>
</svg>
